<svg version="1.1" id="Layer_1" xmlns="http://www.w3.org/2000/svg" xmlns:xlink="http://www.w3.org/1999/xlink" x="0px" y="0px"
	 width="100%" viewBox="0 0 263 162" enable-background="new 0 0 263 162" xml:space="preserve">
<path fill="#000000" opacity="1.000000" stroke="none" 
	d="
M192.000000,163.000000 
	C128.000015,163.000000 64.500031,163.000000 1.000034,163.000000 
	C1.000023,109.000031 1.000023,55.000057 1.000011,1.000063 
	C88.666618,1.000042 176.333237,1.000042 263.999878,1.000021 
	C263.999939,54.999939 263.999939,108.999878 263.999969,162.999908 
	C240.166672,163.000000 216.333328,163.000000 192.000000,163.000000 
M95.999802,82.998589 
	C95.999802,82.998589 96.064606,83.000244 95.911804,82.470291 
	C95.605072,82.289017 95.298332,82.107742 94.987152,82.008575 
	C94.987152,82.008575 95.069260,82.013046 94.918472,81.461472 
	C94.607964,81.253914 94.297447,81.046356 93.840210,80.452789 
	C93.676338,80.206787 93.447601,80.066750 93.026505,79.365425 
	C92.359978,78.546265 91.693451,77.727104 90.993202,76.985336 
	C90.993202,76.985336 91.070587,77.019096 90.891113,76.488335 
	C90.589012,76.279686 90.286911,76.071030 89.827698,75.460289 
	C89.653152,75.203232 89.410950,75.063255 88.838394,74.484077 
	C88.221603,73.965515 87.604820,73.446945 86.987785,73.012306 
	C86.987785,73.012306 87.071709,73.012581 86.838577,72.450600 
	C86.229286,71.933182 85.620003,71.415756 84.727760,70.292366 
	C69.033730,55.748341 50.374008,47.986992 28.693369,45.326569 
	C22.303989,44.970303 15.914612,44.614040 9.204604,44.239895 
	C8.847893,46.921181 8.509646,49.463665 8.034736,52.501266 
	C7.996075,52.668056 7.957415,52.834850 7.259662,53.533234 
	C7.168563,63.085583 7.055940,72.637878 7.032395,82.190399 
	C7.030737,82.862823 7.686678,83.536865 8.048743,84.793892 
	C8.099449,85.178635 8.150155,85.563370 8.055337,86.792488 
	C8.725309,89.627159 9.395282,92.461838 10.036261,96.083214 
	C21.823792,147.589310 64.628227,168.808380 105.204353,153.935760 
	C89.050461,129.720642 69.703926,108.191093 50.580353,86.477562 
	C72.705643,104.241425 91.106392,125.187996 105.681854,149.773621 
	C113.216850,128.027527 110.733841,107.547508 99.084373,87.356926 
	C98.732445,86.878731 98.380516,86.400528 98.010033,85.988663 
	C98.010033,85.988663 98.077286,86.003548 97.915047,85.455391 
	C97.607452,85.241768 97.299850,85.028137 96.945335,84.520782 
	C96.945335,84.520782 96.815895,84.252968 96.873268,83.660728 
	C96.586784,83.418915 96.300308,83.177109 95.999802,82.998589 
M211.712708,59.670544 
	C211.841095,59.807346 211.969482,59.944145 212.015244,60.799095 
	C204.381744,71.640373 196.935272,82.620201 189.045456,93.271622 
	C184.216736,99.790504 178.874283,105.954956 173.451233,111.999260 
	C169.103195,116.845421 164.468826,121.473175 159.634430,125.835327 
	C152.636017,132.150116 145.305603,138.095490 138.196503,144.289932 
	C135.995392,146.207840 134.053619,148.423370 131.350357,150.900482 
	C130.180618,151.978516 129.010880,153.056534 126.901306,155.000687 
	C140.296722,155.000687 152.227753,155.855453 163.961441,154.702301 
	C171.876617,153.924438 179.513428,150.313904 188.009583,148.029968 
	C188.780502,147.813263 189.578079,147.663666 190.318375,147.369797 
	C202.024246,142.722839 211.491394,134.913086 220.344589,126.201553 
	C222.333908,124.244072 225.143433,122.958282 226.693771,120.745583 
	C232.308426,112.732109 238.374359,104.873230 242.759323,96.192879 
	C252.317947,77.270882 257.599884,57.102108 256.931427,35.671570 
	C256.673431,27.400301 256.305908,19.132477 256.037415,10.861487 
	C255.932678,7.634648 254.435135,6.151067 251.136627,5.965983 
	C226.046585,4.558143 201.777069,8.464304 178.696579,18.253916 
	C166.727722,23.330513 155.578201,30.011925 145.512924,38.615421 
	C132.865921,49.425709 122.820877,61.946228 117.073029,77.522057 
	C108.844810,99.819321 111.043579,122.166908 118.107872,144.301498 
	C119.107880,147.434860 120.954750,150.297974 122.558571,153.592026 
	C132.068283,144.549438 140.926743,136.072617 149.851395,127.666046 
	C153.441757,124.284111 157.488495,121.339104 160.789764,117.706535 
	C171.766830,105.627907 182.588013,93.404083 193.292419,81.082565 
	C199.480881,73.959236 205.330185,66.541260 211.712708,59.670544 
z"/>
<path fill="#3CB44C" opacity="1.000000" stroke="none" 
	d="
M131.993103,150.502640 
	C134.053619,148.423370 135.995392,146.207840 138.196503,144.289932 
	C145.305603,138.095490 152.636017,132.150116 159.634430,125.835327 
	C164.468826,121.473175 169.103195,116.845421 173.451233,111.999260 
	C178.874283,105.954956 184.216736,99.790504 189.045456,93.271622 
	C196.935272,82.620201 204.381744,71.640373 212.309082,60.316399 
	C212.652771,59.403988 212.702591,58.974274 212.752411,58.544563 
	C212.278992,58.781677 211.805557,59.018787 211.332123,59.255898 
	C205.330185,66.541260 199.480881,73.959236 193.292419,81.082565 
	C182.588013,93.404083 171.766830,105.627907 160.789764,117.706535 
	C157.488495,121.339104 153.441757,124.284111 149.851395,127.666046 
	C140.926743,136.072617 132.068283,144.549438 122.558571,153.592026 
	C120.954750,150.297974 119.107880,147.434860 118.107872,144.301498 
	C111.043579,122.166908 108.844810,99.819321 117.073029,77.522057 
	C122.820877,61.946228 132.865921,49.425709 145.512924,38.615421 
	C155.578201,30.011925 166.727722,23.330513 178.696579,18.253916 
	C201.777069,8.464304 226.046585,4.558143 251.136627,5.965983 
	C254.435135,6.151067 255.932678,7.634648 256.037415,10.861487 
	C256.305908,19.132477 256.673431,27.400301 256.931427,35.671570 
	C257.599884,57.102108 252.317947,77.270882 242.759323,96.192879 
	C238.374359,104.873230 232.308426,112.732109 226.693771,120.745583 
	C225.143433,122.958282 222.333908,124.244072 220.344589,126.201553 
	C211.491394,134.913086 202.024246,142.722839 190.318375,147.369797 
	C189.578079,147.663666 188.780502,147.813263 187.211945,148.020020 
	C180.803268,149.395523 175.260895,151.407547 169.566422,152.031769 
	C158.781921,153.213959 147.915878,153.773392 137.068512,154.131683 
	C135.418472,154.186188 133.686951,151.773926 131.993103,150.502640 
z"/>
<path fill="#3CB34C" opacity="1.000000" stroke="none" 
	d="
M7.918755,53.001640 
	C7.957415,52.834850 7.996075,52.668056 8.295444,51.960377 
	C9.872642,47.102554 12.725624,45.518002 17.225256,45.921364 
	C21.183046,46.276161 25.197130,46.002987 29.186354,46.007149 
	C50.374008,47.986992 69.033730,55.748341 85.024345,70.852592 
	C85.904518,71.946075 86.488113,72.479332 87.071709,73.012581 
	C87.071709,73.012581 86.987785,73.012306 87.141457,73.232986 
	C87.897110,73.982567 88.499100,74.511467 89.101082,75.040367 
	C89.410950,75.063255 89.653152,75.203232 90.075912,75.865372 
	C90.572937,76.519997 90.821762,76.769547 91.070587,77.019096 
	C91.070587,77.019096 90.993202,76.985336 91.079552,77.267410 
	C91.828598,78.377220 92.491295,79.204956 93.153992,80.032692 
	C93.447601,80.066750 93.676338,80.206787 94.076538,80.858032 
	C94.564995,81.513199 94.817131,81.763123 95.069260,82.013046 
	C95.069260,82.013046 94.987152,82.008575 95.146408,82.167442 
	C95.558647,82.550957 95.811630,82.775597 96.064606,83.000244 
	C96.064606,83.000244 95.999802,82.998589 96.113205,83.201279 
	C96.423042,83.686974 96.619469,83.969971 96.815895,84.252968 
	C96.815895,84.252968 96.945335,84.520782 97.129272,84.884392 
	C97.567902,85.499847 97.822594,85.751694 98.077286,86.003548 
	C98.077286,86.003548 98.010033,85.988663 98.112625,86.246445 
	C98.568489,86.997261 98.921753,87.490311 99.275009,87.983353 
	C110.733841,107.547508 113.216850,128.027527 105.681854,149.773621 
	C91.106392,125.187996 72.705643,104.241425 50.580353,86.477562 
	C69.703926,108.191093 89.050461,129.720642 105.204353,153.935760 
	C64.628227,168.808380 21.823792,147.589310 10.080855,95.251518 
	C9.483920,91.595917 8.842391,88.772018 8.200861,85.948112 
	C8.150155,85.563370 8.099449,85.178635 8.100115,84.140961 
	C8.073910,73.325897 7.996332,63.163769 7.918755,53.001640 
z"/>
<path fill="#55A05D" opacity="1.000000" stroke="none" 
	d="
M131.671722,150.701569 
	C133.686951,151.773926 135.418472,154.186188 137.068512,154.131683 
	C147.915878,153.773392 158.781921,153.213959 169.566422,152.031769 
	C175.260895,151.407547 180.803268,149.395523 186.844528,147.990295 
	C179.513428,150.313904 171.876617,153.924438 163.961441,154.702301 
	C152.227753,155.855453 140.296722,155.000687 126.901306,155.000687 
	C129.010880,153.056534 130.180618,151.978516 131.671722,150.701569 
z"/>
<path fill="#5BA068" opacity="1.000000" stroke="none" 
	d="
M28.939861,45.666859 
	C25.197130,46.002987 21.183046,46.276161 17.225256,45.921364 
	C12.725624,45.518002 9.872642,47.102554 8.363775,51.712814 
	C8.509646,49.463665 8.847893,46.921181 9.204604,44.239895 
	C15.914612,44.614040 22.303989,44.970303 28.939861,45.666859 
z"/>
<path fill="#5BA068" opacity="1.000000" stroke="none" 
	d="
M7.589209,53.267437 
	C7.996332,63.163769 8.073910,73.325897 8.094161,83.849091 
	C7.686678,83.536865 7.030737,82.862823 7.032395,82.190399 
	C7.055940,72.637878 7.168563,63.085583 7.589209,53.267437 
z"/>
<path fill="#5BA068" opacity="1.000000" stroke="none" 
	d="
M8.128099,86.370300 
	C8.842391,88.772018 9.483920,91.595917 10.095352,94.858170 
	C9.395282,92.461838 8.725309,89.627159 8.128099,86.370300 
z"/>
<path fill="#54A75F" opacity="1.000000" stroke="none" 
	d="
M93.090248,79.699059 
	C92.491295,79.204956 91.828598,78.377220 91.096420,77.228714 
	C91.693451,77.727104 92.359978,78.546265 93.090248,79.699059 
z"/>
<path fill="#54A75F" opacity="1.000000" stroke="none" 
	d="
M86.955139,72.731590 
	C86.488113,72.479332 85.904518,71.946075 85.165817,71.155579 
	C85.620003,71.415756 86.229286,71.933182 86.955139,72.731590 
z"/>
<path fill="#54A75F" opacity="1.000000" stroke="none" 
	d="
M88.969742,74.762222 
	C88.499100,74.511467 87.897110,73.982567 87.141579,73.191025 
	C87.604820,73.446945 88.221603,73.965515 88.969742,74.762222 
z"/>
<path fill="#54A75F" opacity="1.000000" stroke="none" 
	d="
M99.179688,87.670135 
	C98.921753,87.490311 98.568489,86.997261 98.121902,86.213272 
	C98.380516,86.400528 98.732445,86.878731 99.179688,87.670135 
z"/>
<path fill="#54A75F" opacity="1.000000" stroke="none" 
	d="
M90.980850,76.753716 
	C90.821762,76.769547 90.572937,76.519997 90.154465,76.066414 
	C90.286911,76.071030 90.589012,76.279686 90.980850,76.753716 
z"/>
<path fill="#54A75F" opacity="1.000000" stroke="none" 
	d="
M94.993866,81.737259 
	C94.817131,81.763123 94.564995,81.513199 94.149902,81.051041 
	C94.297447,81.046356 94.607964,81.253914 94.993866,81.737259 
z"/>
<path fill="#54A75F" opacity="1.000000" stroke="none" 
	d="
M95.988205,82.735268 
	C95.811630,82.775597 95.558647,82.550957 95.148636,82.126389 
	C95.298332,82.107742 95.605072,82.289017 95.988205,82.735268 
z"/>
<path fill="#54A75F" opacity="1.000000" stroke="none" 
	d="
M96.844582,83.956848 
	C96.619469,83.969971 96.423042,83.686974 96.120224,83.169632 
	C96.300308,83.177109 96.586784,83.418915 96.844582,83.956848 
z"/>
<path fill="#54A75F" opacity="1.000000" stroke="none" 
	d="
M97.996170,85.729469 
	C97.822594,85.751694 97.567902,85.499847 97.152725,85.031258 
	C97.299850,85.028137 97.607452,85.241768 97.996170,85.729469 
z"/>
<path fill="#000000" opacity="1.000000" stroke="none" 
	d="
M211.522415,59.463219 
	C211.805557,59.018787 212.278992,58.781677 212.752411,58.544563 
	C212.702591,58.974274 212.652771,59.403988 212.350403,59.957321 
	C211.969482,59.944145 211.841095,59.807346 211.522415,59.463219 
z"/>
</svg>